Coordinates
version=1
nRows=28
nColumns=34
inDegrees=no

Units are S.I. units (second, meters, Newtons, ...)
If the header above contains a line with 'inDegrees', this indicates whether rotational values are in degrees (yes) or radians (no).

endheader
time	pelvis_tilt	pelvis_list	pelvis_rotation	pelvis_tx	pelvis_ty	pelvis_tz	hip_flexion_r	hip_adduction_r	hip_rotation_r	knee_angle_r	ankle_angle_r	subtalar_angle_r	mtp_angle_r	hip_flexion_l	hip_adduction_l	hip_rotation_l	knee_angle_l	ankle_angle_l	subtalar_angle_l	mtp_angle_l	lumbar_extension	lumbar_bending	lumbar_rotation	arm_flex_r	arm_add_r	arm_rot_r	elbow_flex_r	pro_sup_r	arm_flex_l	arm_add_l	arm_rot_l	elbow_flex_l	pro_sup_l
1.42	-0.0735938	0.0388054	-0.0806544	-0.423246	0.950595	-0.58975	0.660758	-0.187215	-0.185125	0.441182	-0.654557	-0.0857052	-0.128442	0.601448	-0.129517	-0.223374	0.378974	-0.598806	-0.111121	-0.128929	-0.324831	0.0657221	-0.278297	1.87465	-0.886471	1.55413	1.81868	0.976768	-1.0351	-1.222	-1.32018	1.75566	1.43686
1.43	-0.0897771	0.0392463	-0.0800336	-0.411234	0.921162	-0.59014	0.730267	-0.179274	-0.140018	0.586827	-0.410112	-0.125904	-0.128439	0.674919	-0.12666	-0.186524	0.524315	-0.373685	-0.154497	-0.128942	-0.309069	0.0588035	-0.278745	1.63851	-1.01034	1.31934	1.87499	0.968554	-1.17622	-1.14496	-1.44264	1.79835	1.40258
1.44	-0.106836	0.0394152	-0.0801762	-0.40014	0.893139	-0.590431	0.800352	-0.170463	-0.099469	0.722858	-0.203447	-0.160468	-0.128435	0.750119	-0.126	-0.154347	0.66275	-0.184298	-0.191166	-0.128955	-0.296305	0.0531746	-0.272347	1.35755	-1.10373	1.04324	1.92506	0.966471	-1.28443	-1.07589	-1.52875	1.83204	1.37528
1.45	-0.124543	0.0393196	-0.081083	-0.389931	0.866515	-0.590634	0.870778	-0.160853	-0.0634778	0.849238	-0.0342748	-0.189456	-0.128432	0.82673	-0.127501	-0.126804	0.794098	-0.030336	-0.221209	-0.128968	-0.286673	0.048845	-0.259322	1.03483	-1.16638	0.728871	1.9687	0.970481	-1.36036	-1.0147	-1.5791	1.85676	1.35483
1.46	-0.142327	0.0389961	-0.0826938	-0.380587	0.841351	-0.590789	0.940785	-0.150659	-0.0320078	0.965982	0.0987434	-0.212985	-0.128429	0.903721	-0.131011	-0.103768	0.917921	0.0895873	-0.244901	-0.128981	-0.280604	0.0458011	-0.240365	0.680304	-1.19785	0.386125	2.00539	0.980403	-1.40581	-0.96102	-1.59532	1.87272	1.34085
1.47	-0.159246	0.0384783	-0.0848812	-0.371957	0.818139	-0.590998	1.00898	-0.140294	-0.00494401	1.07322	0.198708	-0.231171	-0.128425	0.979219	-0.136164	-0.0849941	1.03354	0.178625	-0.262774	-0.128994	-0.278824	0.0439712	-0.216854	0.313169	-1.19832	0.0340663	2.03423	0.995782	-1.42395	-0.914008	-1.58037	1.8803	1.33262
1.48	-0.174153	0.0378257	-0.0874189	-0.363938	0.79696	-0.591295	1.07353	-0.130348	0.0179124	1.1712	0.2706	-0.244105	-0.128422	1.05078	-0.142347	-0.0700994	1.14014	0.241764	-0.275608	-0.129007	-0.282105	0.0432556	-0.190802	-0.0397666	-1.16962	-0.300718	2.0542	1.01577	-1.41912	-0.872339	-1.53835	1.88018	1.32908
1.49	-0.186218	0.0371369	-0.0899963	-0.356578	0.777459	-0.591743	1.13266	-0.121498	0.0368389	1.26018	0.320714	-0.25189	-0.128419	1.11605	-0.148763	-0.0585561	1.23695	0.285201	-0.284382	-0.12902	-0.290885	0.043543	-0.164545	-0.350733	-1.11605	-0.590807	2.0645	1.03911	-1.39624	-0.834402	-1.47416	1.87329	1.32899
1.5	-0.195133	0.0364888	-0.0922858	-0.34981	0.759526	-0.592346	1.18529	-0.114363	0.0522082	1.34044	0.355692	-0.254721	-0.128416	1.17352	-0.154557	-0.0497007	1.32345	0.315336	-0.290171	-0.129033	-0.304807	0.0447138	-0.140256	-0.599108	-1.04401	-0.816113	2.06492	1.0643	-1.36017	-0.798641	-1.39303	1.86073	1.3311
1.51	-0.201344	0.0359642	-0.0940286	-0.343584	0.742988	-0.593141	1.2313	-0.109327	0.0645069	1.41229	0.381566	-0.252974	-0.128412	1.22293	-0.158976	-0.0427549	1.39958	0.337815	-0.294026	-0.129046	-0.322701	0.0466597	-0.119499	-0.775373	-0.96088	-0.967857	2.0561	1.08979	-1.31512	-0.763886	-1.30004	1.84378	1.33432
1.52	-0.205886	0.0355791	-0.0951031	-0.337874	0.727628	-0.594133	1.27151	-0.106444	0.0743254	1.47621	0.403089	-0.247265	-0.128409	1.2652	-0.161477	-0.0368823	1.46588	0.356888	-0.296869	-0.129059	-0.342848	0.049258	-0.103	-0.880898	-0.873709	-1.04837	2.0395	1.11427	-1.26431	-0.729511	-1.19984	1.82374	1.33779
1.53	-0.21001	0.0353074	-0.0955236	-0.332719	0.713325	-0.595224	1.30729	-0.105418	0.0822973	1.53285	0.423437	-0.238462	-0.128406	1.30205	-0.161798	-0.0312714	1.52338	0.375195	-0.299416	-0.129072	-0.363401	0.052389	-0.090667	-0.925179	-0.788319	-1.06834	2.0172	1.13683	-1.20989	-0.695414	-1.09652	1.80192	1.34093
1.54	-0.214854	0.0350879	-0.0954165	-0.328137	0.700054	-0.596368	1.34017	-0.105679	0.0890217	1.58307	0.444222	-0.227662	-0.128403	1.33542	-0.159969	-0.0252437	1.57349	0.393899	-0.302165	-0.129085	-0.382803	0.0559087	-0.0818021	-0.922158	-0.708821	-1.043	1.99164	1.15708	-1.15312	-0.661876	-0.993615	1.77967	1.34336
1.55	-0.221218	0.0348294	-0.094973	-0.324104	0.687714	-0.597541	1.37152	-0.106526	0.0950061	1.62779	0.465744	-0.216106	-0.128399	1.36711	-0.15625	-0.0183519	1.61767	0.413056	-0.305435	-0.129098	-0.40004	0.0596204	-0.0753921	-0.886772	-0.637575	-0.988713	1.9653	1.17521	-1.09451	-0.629386	-0.894118	1.75834	1.34491
1.56	-0.229447	0.0344536	-0.0944078	-0.320594	0.676229	-0.598689	1.40237	-0.107282	0.100639	1.66796	0.48741	-0.205051	-0.128396	1.39839	-0.151031	-0.0104272	1.65727	0.432098	-0.309403	-0.129111	-0.414707	0.0632768	-0.070385	-0.832404	-0.575418	-0.920223	1.94047	1.19196	-1.03406	-0.598484	-0.800513	1.73927	1.34553
1.57	-0.239441	0.0339708	-0.0938885	-0.317586	0.665555	-0.599753	1.4333	-0.107407	0.10619	1.70438	0.508206	-0.195601	-0.128393	1.42993	-0.144737	-0.00156201	1.6933	0.450277	-0.314129	-0.129124	-0.426912	0.0666089	-0.0658867	-0.769383	-0.522046	-0.849117	1.91904	1.20856	-0.971454	-0.569649	-0.714745	1.72372	1.34532
1.58	-0.250871	0.0334569	-0.0935235	-0.315056	0.655536	-0.600737	1.46448	-0.106585	0.111837	1.73772	0.527125	-0.188537	-0.128389	1.4618	-0.137749	0.00794356	1.72644	0.467002	-0.319548	-0.129137	-0.437157	0.0693285	-0.0613326	-0.704457	-0.476432	-0.783173	1.9024	1.2264	-0.906225	-0.543235	-0.638191	1.71283	1.34444
1.59	-0.263269	0.0330708	-0.0933403	-0.313	0.646052	-0.601641	1.49577	-0.104742	0.117703	1.76843	0.543454	-0.184211	-0.128386	1.49365	-0.130364	0.0176558	1.75702	0.481977	-0.325463	-0.12915	-0.446081	0.0711786	-0.056596	-0.64096	-0.437237	-0.726412	1.89132	1.24678	-0.837908	-0.519407	-0.571661	1.7075	1.34312
1.6	-0.276171	0.0330192	-0.0932738	-0.311404	0.637066	-0.602451	1.52689	-0.102022	0.1239	1.79679	0.556897	-0.182529	-0.128383	1.52493	-0.122779	0.0270812	1.78513	0.495178	-0.33157	-0.129163	-0.454273	0.0719467	-0.0520345	-0.579436	-0.403125	-0.679613	1.88593	1.27043	-0.766192	-0.498116	-0.515428	1.70824	1.34152
1.61	-0.289162	0.0335165	-0.0931819	-0.310218	0.628599	-0.603161	1.55744	-0.098728	0.130546	1.82294	0.567559	-0.183012	-0.12838	1.55509	-0.115102	0.0357316	1.81073	0.50673	-0.337516	-0.129176	-0.462137	0.071484	-0.0484258	-0.518511	-0.372952	-0.641134	1.8857	1.2975	-0.690974	-0.479144	-0.469242	1.71514	1.33984
1.62	-0.30191	0.0347672	-0.0928703	-0.309396	0.620663	-0.603775	1.58708	-0.0952421	0.137765	1.84695	0.575834	-0.184932	-0.128376	1.58367	-0.107392	0.0431775	1.83378	0.516784	-0.342958	-0.129189	-0.469874	0.069724	-0.0467891	-0.455837	-0.345817	-0.607851	1.88954	1.3276	-0.612322	-0.46217	-0.432321	1.72769	1.33824
1.63	-0.314165	0.0369318	-0.0921285	-0.308894	0.613267	-0.604301	1.61547	-0.0919387	0.14567	1.86886	0.582259	-0.187482	-0.128373	1.61036	-0.0997005	0.0490811	1.85423	0.525441	-0.347615	-0.129202	-0.477529	0.0666712	-0.0481358	-0.388941	-0.321023	-0.576099	1.89593	1.36017	-0.530379	-0.446858	-0.403344	1.74483	1.33695
1.64	-0.32572	0.0401043	-0.0907665	-0.308666	0.606416	-0.604753	1.64231	-0.0891142	0.154343	1.88874	0.587372	-0.189953	-0.12837	1.63497	-0.0921064	0.0532131	1.87215	0.532741	-0.351296	-0.129215	-0.485084	0.0623793	-0.0531882	-0.315893	-0.298006	-0.542521	1.90314	1.39495	-0.445223	-0.432916	-0.380422	1.76496	1.33634
1.65	-0.33638	0.0442984	-0.0886465	-0.308651	0.600142	-0.605148	1.66733	-0.0869516	0.163816	1.90669	0.591617	-0.191852	-0.128366	1.65738	-0.0847325	0.055454	1.88766	0.538706	-0.353898	-0.129229	-0.492556	0.0569337	-0.0621198	-0.235776	-0.276275	-0.504714	1.90953	1.43184	-0.356719	-0.420111	-0.361079	1.78611	1.3369
1.66	-0.345929	0.0494323	-0.0857035	-0.308786	0.594479	-0.605494	1.69027	-0.0855287	0.17405	1.92287	0.595292	-0.192931	-0.128363	1.67747	-0.0777323	0.0557959	1.90094	0.543398	-0.355391	-0.129242	-0.500083	0.0504534	-0.0743701	-0.148911	-0.255422	-0.461595	1.91394	1.47004	-0.264414	-0.408228	-0.342294	1.80612	1.33921
1.67	-0.354127	0.055311	-0.0819528	-0.309012	0.589458	-0.6058	1.71086	-0.0848477	0.184902	1.93745	0.598562	-0.193153	-0.12836	1.69512	-0.071267	0.0543633	1.91222	0.546964	-0.355778	-0.129255	-0.507954	0.0431179	-0.088603	-0.0568014	-0.235166	-0.413497	1.91592	1.50773	-0.167549	-0.396969	-0.320666	1.82291	1.3438
1.68	-0.360746	0.061611	-0.0774911	-0.309294	0.585095	-0.606076	1.72883	-0.0848594	0.196085	1.9506	0.601491	-0.192632	-0.128356	1.71021	-0.0654826	0.0514452	1.92177	0.549629	-0.355077	-0.129268	-0.516578	0.0352033	-0.102895	0.0382078	-0.215427	-0.361905	1.91584	1.54231	-0.0652778	-0.385835	-0.292813	1.83485	1.35093
1.69	-0.365621	0.0678922	-0.0724939	-0.309614	0.581407	-0.606329	1.74394	-0.0854691	0.207176	1.96243	0.604091	-0.191581	-0.128353	1.72267	-0.0604974	0.0474981	1.92986	0.551662	-0.353313	-0.129281	-0.52637	0.027093	-0.115204	0.133552	-0.196326	-0.308868	1.91455	1.5715	0.0429025	-0.374063	-0.256023	1.84102	1.36035
